<svg xmlns="http://www.w3.org/2000/svg" width="72.835" height="101.142"><g data-name="Group 39"><path data-name="Line 13" fill="none" stroke="#73edff" stroke-width="2" d="M35.836 101.142V0"/><path data-name="Path 37" d="M72.835 50.551a36.417 36.417 0 1 0-36.418 36.417 36.418 36.418 0 0 0 36.418-36.417" fill="#73edff"/><path data-name="Path 56" d="m56.957 47.225-5.5-5.5h-9.98v-1.547a5.571 5.571 0 1 0-11.142 0v8.813H19.673l-4.958 4.958 5.5 5.5h10.12v3.786h2.936V40.178a2.635 2.635 0 1 1 5.27 0v23.057h2.936V52.183h10.522Zm-35.526 9.29-2.565-2.566 2.023-2.022h9.446v4.588Zm20.046-7.267V44.66h8.765l2.565 2.565-2.022 2.023Z" fill="#000078"/></g></svg>