<svg xmlns="http://www.w3.org/2000/svg" width="74.035" height="101.142"><g data-name="Group 43"><path data-name="Path 39" d="M73.435 50.551a36.418 36.418 0 1 0-36.422 36.417 36.418 36.418 0 0 0 36.422-36.417Z" fill="none" stroke="#73edff" stroke-miterlimit="10" stroke-width="1.2"/><g data-name="Group 42"><path data-name="Line 14" fill="none" stroke="#73edff" stroke-width="2" d="M37.018 101.142V0"/><g data-name="Group 41"><g data-name="Group 40"><path data-name="Path 38" d="M73.435 50.551a36.418 36.418 0 1 0-36.422 36.417A36.418 36.418 0 0 0 73.43 50.551" fill="#73edff"/><path data-name="Path 48" d="M36.947 52.637a7.3 7.3 0 1 1 7.3-7.3 7.308 7.308 0 0 1-7.3 7.3m0-11.519a4.219 4.219 0 1 0 4.22 4.219 4.224 4.224 0 0 0-4.22-4.219" fill="#000078"/><path data-name="Path 49" d="M56.725 49.379h-9.641a4.353 4.353 0 0 0-4.348 4.349v.934H30.579V53.27a4.355 4.355 0 0 0-4.349-4.349h-4.959v3.08h4.959a1.27 1.27 0 0 1 1.268 1.269v1.487a4.356 4.356 0 0 0-3.448 4.254v3.491h3.08v-3.494a1.271 1.271 0 0 1 1.269-1.27h16.133a1.27 1.27 0 0 1 1.268 1.27v3.491h3.08v-3.491a4.357 4.357 0 0 0-3.064-4.155v-1.128a1.27 1.27 0 0 1 1.268-1.269h9.641a1.272 1.272 0 0 1 1.27 1.269v8.774h3.079v-8.774a4.353 4.353 0 0 0-4.349-4.349" fill="#000078"/></g><path data-name="Path 50" d="M51.905 47.808a5.313 5.313 0 1 0-5.312-5.314 5.318 5.318 0 0 0 5.312 5.314m0-7.547a2.234 2.234 0 1 1-2.233 2.233 2.237 2.237 0 0 1 2.233-2.233" fill="#000078"/><path data-name="Path 51" d="M21.413 39.8a2.234 2.234 0 0 1 0 4.468c-.047 0-.091-.011-.137-.014v3.086c.046 0 .091.008.137.008a5.314 5.314 0 0 0 0-10.628c-.046 0-.091.006-.137.008v3.086c.046 0 .09-.014.137-.014" fill="#000078"/></g></g></g></svg>