<svg xmlns="http://www.w3.org/2000/svg" width="72.834" height="101.142"><g data-name="Group 44"><path data-name="Line 15" fill="none" stroke="#73edff" stroke-width="2" d="M36.998 101.142V0"/><g data-name="Group 43"><path data-name="Path 40" d="M72.834 50.551a36.417 36.417 0 1 0-36.417 36.417 36.418 36.418 0 0 0 36.417-36.417" fill="#73edff"/><path data-name="Path 72" d="M30.607 54.899a2.574 2.574 0 0 1 .021-1.765l-2.332-1.015a4.783 4.783 0 0 0 2.928 6.468l.962-2.354a2.65 2.65 0 0 1-1.579-1.334m.375-10.468a2.735 2.735 0 0 1-1.775-1.928 2.356 2.356 0 0 1 .122-1.15v.015l-2.327-1.046a4.857 4.857 0 0 0-.34 2.4 5.048 5.048 0 0 0 3.222 4.016Zm24.287 2.342a9.511 9.511 0 0 0-3.729-7.22 10.1 10.1 0 0 0-2.714-1.469 8.5 8.5 0 0 0-4.124-4.4 7.789 7.789 0 0 0-7.758.8l-.495.384.208 28.979a4.32 4.32 0 0 0 1.4 2.974 4.829 4.829 0 0 0 3.394 1.3h.356a4.592 4.592 0 0 0 3.6-2.1 6.31 6.31 0 0 0 .495-.887 8.958 8.958 0 0 0 1.1-.1 5.94 5.94 0 0 0 4.213-2.493 7.493 7.493 0 0 0 .991-4.877 5.223 5.223 0 0 0 1.447-5.349 7.433 7.433 0 0 0 1.629-5.511Zm-4.894 4.991a7.832 7.832 0 0 1-2.91.992l.225 2.535a10.478 10.478 0 0 0 3.614-1.116 2.458 2.458 0 0 1-1.177 1.876l-.743.5.2.858a5.528 5.528 0 0 1-.495 3.718 4.009 4.009 0 0 1-6.593-.677l-2.318 1.048a5.9 5.9 0 0 0 3.077 3.162 2.123 2.123 0 0 1-1.6.917 2.385 2.385 0 0 1-1.855-.6 1.839 1.839 0 0 1-.606-1.122l-.181-27.658a5.2 5.2 0 0 1 4.65-.171 6.33 6.33 0 0 1 2.986 3.47l.213.711.724.171A7.137 7.137 0 0 1 50 41.598a7 7 0 0 1 2.726 5.368 4.777 4.777 0 0 1-2.359 4.817Zm-4.538-8.842a3.91 3.91 0 0 1-.26 2.448 1.831 1.831 0 0 1-1.215.8l.588 2.478a4.359 4.359 0 0 0 2.8-1.947 6.258 6.258 0 0 0 .564-4.377ZM28.27 33.685a6.516 6.516 0 0 0-4.4 4.154 10.376 10.376 0 0 0-2.384 1.144 8.43 8.43 0 0 0-3.847 6.07 10.221 10.221 0 0 0 1.562 7.266 6.6 6.6 0 0 0-.263 1.344 6.032 6.032 0 0 0 1.562 4.725 6.221 6.221 0 0 0 1.06 4.268 6.548 6.548 0 0 0 4.956 2.4 4.705 4.705 0 0 0 4.5 2.924h.059a4.6 4.6 0 0 0 4.687-3.393l.022-.116V34.754l-.56-.379a8.363 8.363 0 0 0-6.952-.692m4.957 30.528a2.281 2.281 0 0 1-2.191 1.226h-.034a2.227 2.227 0 0 1-2.318-1.878 2.367 2.367 0 0 1 1.408-2.562l-.992-2.335a5.091 5.091 0 0 0-2.951 3.787 3.771 3.771 0 0 1-2.52-1.3 3.964 3.964 0 0 1-.521-2.937l.2-.795-.662-.518a3.4 3.4 0 0 1-1.172-3.019 3.565 3.565 0 0 1 1.8-2.875 4.571 4.571 0 0 1 4.461.318l.719-1.049.727-1.043a7.143 7.143 0 0 0-7.093-.474 5.811 5.811 0 0 0-1.386 1.032 8.186 8.186 0 0 1-.535-4.41c.585-4.319 4.828-5.236 5.011-5.273l.917-.171.1-.934a3.806 3.806 0 0 1 2.867-2.9 6.053 6.053 0 0 1 4.182.1Zm9.1-13.353a3.531 3.531 0 0 1-.226 2.3 1.485 1.485 0 0 1-1.165.609l.35 2.521a4.034 4.034 0 0 0 2.932-1.705 5.89 5.89 0 0 0 .585-4.342Z" fill="#000078"/></g></g></svg>