<svg xmlns="http://www.w3.org/2000/svg" width="72.835" height="101.142"><g data-name="Group 52"><path data-name="Line 18" fill="none" stroke="#73edff" stroke-width="2" d="M38.276 101.142V0"/><g data-name="Group 51"><path data-name="Path 43" d="M72.835 50.551a36.418 36.418 0 1 0-36.418 36.417 36.418 36.418 0 0 0 36.418-36.417" fill="#73edff"/><g data-name="Group 50" fill="#000078"><path data-name="Path 52" d="M41.963 56.223v1.25c0 1.5.685 2.293 1.972 2.293s1.97-.79 1.97-2.293v-1.25c0-1.5-.686-2.293-1.97-2.293s-1.972.79-1.972 2.293m1.328.018c0-.834.174-1.12.644-1.12s.642.286.642 1.12v1.216c0 .833-.174 1.12-.642 1.12s-.644-.287-.644-1.12Z"/><g data-name="Group 49"><path data-name="Path 54" d="M30.935 41.07h-5.342v-5.729h-2.976v23.382a5.65 5.65 0 1 0 11.3 0V35.341h-2.976Zm-2.672 20.325a2.675 2.675 0 0 1-2.673-2.672V44.046h5.345v14.677a2.674 2.674 0 0 1-2.672 2.672"/><path data-name="Path 55" d="m55.193 57.841-4.39-9.9v-12.43h-2.976v13.061l4.645 10.471a2.06 2.06 0 0 1-1.882 2.9h-9.854a2.059 2.059 0 0 1-1.883-2.894l4.646-10.472V35.516h-2.977v12.43l-4.389 9.9a5.035 5.035 0 0 0 4.6 7.077h9.86a5.036 5.036 0 0 0 4.6-7.077"/></g></g></g></g></svg>