<svg version="1.2" xmlns="http://www.w3.org/2000/svg" viewBox="0 0 73 14" width="73" height="14">
	<title>1-svg</title>
	<style>
		.s0 { fill: none;stroke: #73edff;stroke-width: 2 } 
		.s1 { fill: #73edff } 
		.s2 { fill: #000078 } 
	</style>
	<g id="Group 39">
		<path id="Line 13" fill-rule="evenodd" class="s0" d="m35.8 14.1v-101.1"/>
		<path id="Path 37" class="s1" d="m72.8-36.4c0-14.8-8.8-28.1-22.4-33.7-13.7-5.6-29.3-2.5-39.7 7.9-10.4 10.4-13.6 26.1-7.9 39.7 5.6 13.6 18.9 22.5 33.6 22.5 4.8 0 9.5-1 14-2.8 4.4-1.8 8.4-4.5 11.8-7.9 3.3-3.4 6-7.4 7.9-11.8 1.8-4.4 2.7-9.2 2.7-13.9z"/>
		<path id="Path 56" fill-rule="evenodd" class="s2" d="m52-34.8h-10.5v11h-3v-23c0-0.7-0.2-1.4-0.7-1.9-0.5-0.5-1.2-0.8-1.9-0.8-0.7 0-1.4 0.3-1.9 0.8-0.5 0.5-0.7 1.2-0.7 1.9v23h-3v-3.8h-10.1l-5.5-5.5 5-4.9h10.6v-8.8c0-1.5 0.6-2.9 1.7-4 1-1 2.4-1.6 3.9-1.6 1.5 0 2.9 0.6 3.9 1.6 1.1 1.1 1.7 2.5 1.7 4v1.5h10l5.5 5.5zm-21.7 4.4v-4.6h-9.5l-2 2 2.6 2.6zm20.4-7.3l2.1-2-2.6-2.6h-8.8v4.6z"/>
	</g>
</svg>