<svg version="1.1" id="Capa_1" xmlns="http://www.w3.org/2000/svg" x="0" y="0" width="72.8" height="101.1" style="enable-background:new 0 0 72.8 101.1" xml:space="preserve"><style>.st2{fill:#000078}</style><g id="Group_47" transform="translate(-433.397 -417.192)"><path id="Line_16" style="fill:none;stroke:#73edff;stroke-width:2" d="M471 518.3V417.2"/><g id="Group_46"><g id="Group_45"><path id="Path_41" d="M506.2 467.7c0-20.1-16.3-36.4-36.4-36.4s-36.4 16.3-36.4 36.4c0 20.1 16.3 36.4 36.4 36.4 20.1.1 36.4-16.2 36.4-36.4" style="fill:#73edff"/></g><path class="st2" d="M451.4 477h37.5v3h-37.5zM487.7 474.5h-35.1v-14c0-4.9 4-8.9 8.9-8.9h17.3c4.9 0 8.9 4 8.9 8.9v14zm-32.1-2.9h29.2v-11c0-3.3-2.7-6-6-6h-17.3c-3.3 0-6 2.7-6 6v11z"/><path class="st2" d="M471.7 466.7h-3.2l-.6 2.2h-2.4v-.9l3.1-10.3h3.1l3.1 10.3v.9h-2.6l-.5-2.2zm-1.6-6.3-1.1 4h2.1l-1-4z"/></g></g></svg>
