<svg xmlns="http://www.w3.org/2000/svg" width="72.834" height="101.142"><g data-name="Group 50"><g data-name="Group 49"><path data-name="Line 17" fill="none" stroke="#73edff" stroke-width="2" d="M36.417 101.142V0"/><g data-name="Group 48"><path data-name="Path 42" d="M72.834 50.551a36.417 36.417 0 1 0-36.417 36.417 36.418 36.418 0 0 0 36.417-36.417" fill="#73edff"/><path data-name="Path 44" d="M43.369 37.24v-2.848H40.49v2.848h-7.881v-2.848h-2.88v2.848h-5.507v22.239h2.879V48.408h18.9v11.067h2.879V37.236Zm2.629 8.293h-18.9V40.12h2.628v2.86h2.88v-2.86h7.881v2.86h2.879v-2.86h2.629Z" fill="#000078"/></g></g><path data-name="Path 45" d="m31.119 54.539 5.3 5.3 6.52-6.521v-3.7l-6.52 6.521-3.445-3.447Z" fill="#000078"/></g></svg>
